<svg xmlns="http://www.w3.org/2000/svg" viewBox="0 0 197.79 135.15"><defs><style>.cls-1{fill:#3a374a;}.cls-2{fill:#799fd3;}.cls-3{fill:#fff;}</style></defs><title>ds4a_colombia</title><g id="Layer_2" data-name="Layer 2"><g id="Layer_1-2" data-name="Layer 1"><circle class="cls-1" cx="46.75" cy="15.49" r="7.77" transform="translate(30.33 61.92) rotate(-88.85)"/><path class="cls-1" d="M35.42,37.79a7.77,7.77,0,1,1-7.61-7.92A7.76,7.76,0,0,1,35.42,37.79Z"/><circle class="cls-1" cx="7.77" cy="60.55" r="7.77" transform="translate(-52.92 67.1) rotate(-88.85)"/><rect class="cls-2" x="77.1" width="120.69" height="135.15" transform="translate(274.88 135.15) rotate(180)"/><path class="cls-3" d="M101,24.61l14.31-.11a32.86,32.86,0,0,1,7.94.94,20.89,20.89,0,0,1,7.21,3.25,17.45,17.45,0,0,1,5.24,6A19.59,19.59,0,0,1,137.78,44a18.65,18.65,0,0,1-1.93,8.9A18.28,18.28,0,0,1,130.71,59a21.65,21.65,0,0,1-7.15,3.58,28.77,28.77,0,0,1-7.92,1.2l-14.31.11Zm13.44,33.11A24.69,24.69,0,0,0,120,57a14.71,14.71,0,0,0,5-2.2,11.59,11.59,0,0,0,3.65-4.17,13.77,13.77,0,0,0,1.37-6.62,14.57,14.57,0,0,0-1.48-6.87A11.33,11.33,0,0,0,124.89,33a14,14,0,0,0-5.07-2,29.36,29.36,0,0,0-5.59-.51l-6,0,.23,27.21Z"/><path class="cls-3" d="M163.3,32.89a8.69,8.69,0,0,0-3.18-2.35,9.78,9.78,0,0,0-4.13-.92,10.38,10.38,0,0,0-2.46.32,7.8,7.8,0,0,0-2.23.94,5.27,5.27,0,0,0-1.64,1.65A4.37,4.37,0,0,0,149,35a4.18,4.18,0,0,0,.57,2.23,5,5,0,0,0,1.56,1.57,10.55,10.55,0,0,0,2.38,1.13q1.41.48,3.09,1c1.28.39,2.6.83,4,1.33a15.25,15.25,0,0,1,3.77,2,10.05,10.05,0,0,1,2.83,3.14,9.49,9.49,0,0,1,1.13,4.74,11.87,11.87,0,0,1-1.13,5.44,11.37,11.37,0,0,1-3.11,3.87,13.41,13.41,0,0,1-4.57,2.32,19.79,19.79,0,0,1-5.54.81,21.46,21.46,0,0,1-7.57-1.33,14.63,14.63,0,0,1-6.09-4.08l5-4.62a10,10,0,0,0,3.92,3.08,10.6,10.6,0,0,0,7.31.79,6.67,6.67,0,0,0,2.32-1,5.65,5.65,0,0,0,1.66-1.78,5.05,5.05,0,0,0,.63-2.65,4.24,4.24,0,0,0-.75-2.53,6.34,6.34,0,0,0-2-1.73,13.64,13.64,0,0,0-2.92-1.26L152,46.24A36.74,36.74,0,0,1,148.39,45a12,12,0,0,1-3.24-2,9.84,9.84,0,0,1-2.35-3.06,10.23,10.23,0,0,1-.93-4.55,9.69,9.69,0,0,1,1.22-5.08,10.89,10.89,0,0,1,3.27-3.55A14.9,14.9,0,0,1,151,24.61a20.94,20.94,0,0,1,5.28-.72,19.31,19.31,0,0,1,6.14,1A15,15,0,0,1,167.85,28Z"/><path class="cls-3" d="M151.69,69.94l6.51,0,18.54,41-8.59.06-4-9.39-18.33.14-3.75,9.45-8.42.07Zm9.76,25.4-6.64-16.7-6.5,16.8Z"/><path class="cls-3" d="M118.42,102.68H98.14V96.5L116.8,70h8.93V96.68h6.14v6h-6.14v8.58h-7.31Zm0-24.49h-.13L105.83,96.68h12.59Z"/></g></g></svg>